<svg width="380" height="290" viewBox="0 0 380 290" xmlns="http://www.w3.org/2000/svg"><rect width="100%" height="100%" fill="#0d1117" rx="6" ry="6"/><rect x="0.5" y="0.5" width="379" height="289" fill="none" stroke="#30363d" stroke-width="1" rx="5.5" ry="5.5"/><text x="20" y="30" font-family="Segoe UI, system-ui, sans-serif" font-size="14" font-weight="600" fill="#58a6ff">?? Top Languages</text><text x="20" y="69" font-family="Segoe UI, system-ui, sans-serif" font-size="11" fill="#c9d1d9">Python</text><text x="120" y="69" font-family="Segoe UI, system-ui, sans-serif" font-size="11" fill="#c9d1d9">48.4%</text><rect x="200" y="57" width="260" height="16" fill="#21262d" rx="3" ry="3"/><rect x="200" y="57" width="125.84" height="16" fill="#58a6ff" rx="3" ry="3"/><text x="20" y="99" font-family="Segoe UI, system-ui, sans-serif" font-size="11" fill="#c9d1d9">TypeScript</text><text x="120" y="99" font-family="Segoe UI, system-ui, sans-serif" font-size="11" fill="#c9d1d9">22.9%</text><rect x="200" y="87" width="260" height="16" fill="#21262d" rx="3" ry="3"/><rect x="200" y="87" width="59.53999999999999" height="16" fill="#f78166" rx="3" ry="3"/><text x="20" y="129" font-family="Segoe UI, system-ui, sans-serif" font-size="11" fill="#c9d1d9">JavaScript</text><text x="120" y="129" font-family="Segoe UI, system-ui, sans-serif" font-size="11" fill="#c9d1d9">17.6%</text><rect x="200" y="117" width="260" height="16" fill="#21262d" rx="3" ry="3"/><rect x="200" y="117" width="45.760000000000005" height="16" fill="#a5d6ff" rx="3" ry="3"/><text x="20" y="159" font-family="Segoe UI, system-ui, sans-serif" font-size="11" fill="#c9d1d9">HTML</text><text x="120" y="159" font-family="Segoe UI, system-ui, sans-serif" font-size="11" fill="#c9d1d9">5.0%</text><rect x="200" y="147" width="260" height="16" fill="#21262d" rx="3" ry="3"/><rect x="200" y="147" width="13" height="16" fill="#ffa657" rx="3" ry="3"/><text x="20" y="189" font-family="Segoe UI, system-ui, sans-serif" font-size="11" fill="#c9d1d9">CSS</text><text x="120" y="189" font-family="Segoe UI, system-ui, sans-serif" font-size="11" fill="#c9d1d9">3.7%</text><rect x="200" y="177" width="260" height="16" fill="#21262d" rx="3" ry="3"/><rect x="200" y="177" width="9.620000000000001" height="16" fill="#d2a8ff" rx="3" ry="3"/><text x="20" y="219" font-family="Segoe UI, system-ui, sans-serif" font-size="11" fill="#c9d1d9">Vue</text><text x="120" y="219" font-family="Segoe UI, system-ui, sans-serif" font-size="11" fill="#c9d1d9">2.3%</text><rect x="200" y="207" width="260" height="16" fill="#21262d" rx="3" ry="3"/><rect x="200" y="207" width="5.9799999999999995" height="16" fill="#7ee787" rx="3" ry="3"/><text x="20" y="249" font-family="Segoe UI, system-ui, sans-serif" font-size="11" fill="#c9d1d9">Dockerfile</text><text x="120" y="249" font-family="Segoe UI, system-ui, sans-serif" font-size="11" fill="#c9d1d9">0.1%</text><rect x="200" y="237" width="260" height="16" fill="#21262d" rx="3" ry="3"/><rect x="200" y="237" width="2" height="16" fill="#ff7b72" rx="3" ry="3"/><text x="20" y="279" font-family="Segoe UI, system-ui, sans-serif" font-size="11" fill="#c9d1d9">Shell</text><text x="120" y="279" font-family="Segoe UI, system-ui, sans-serif" font-size="11" fill="#c9d1d9">0.0%</text><rect x="200" y="267" width="260" height="16" fill="#21262d" rx="3" ry="3"/><rect x="200" y="267" width="2" height="16" fill="#c9d1d9" rx="3" ry="3"/></svg>